{"title":"The World's End 2013 WEBRiP XViD UNiQUE","uid":8886075,"size":774793909,"categoryP":"video","categoryS":"movies","magnet":"?xt=urn:btih:008f0f20bd0f71de821a0c076c4d713625654d21&amp;dn=The+World%27s+End+2013+WEBRiP+XViD+UNiQUE&amp;tr=udp%3A%2F%2Ftracker.openbittorrent.com%3A80&amp;tr=udp%3A%2F%2Fopen.demonii.com%3A1337&amp;tr=udp%3A%2F%2Ftracker.coppersurfer.tk%3A6969&amp;tr=udp%3A%2F%2Fexodus.desync.com%3A6969","seeders":2,"leechers":1,"uploader":"TeX","files":3,"time":1378464345,"description":"[*] [img]http://i2.cdnds.net/13/19/618x464/movies-the-worlds-end-poster.jpg[/img]\n\nhe World's End 2013 WEBRiP XViD UNiQUE\n\nSource Used SmY - Thanks\n\nFormat : AVI\nFormat/Info : Audio Video Interleave\nFile size : 735 MiB\nDuration : 1h 44mn\nOverall bit rate : 983 Kbps\nWriting application : VirtualDubMod 1.5.10.2 (build 2540/release)\nWriting library : VirtualDubMod build 2540/release\n\nVideo\nID : 0\nFormat : MPEG-4 Visual\nFormat profile : Advanced Simple@L5\nFormat settings, BVOP : 2\nFormat settings, QPel : No\nFormat settings, GMC : No warppoints\nFormat settings, Matrix : Default (H.263)\nMuxing mode : Packed bitstream\nCodec ID : XVID\nCodec ID/Hint : XviD\nDuration : 1h 44mn\nBit rate : 781 Kbps\nWidth : 720 pixels\nHeight : 304 pixels\nDisplay aspect ratio : 2.35:1\nFrame rate : 25.000 fps\nColor space : YUV\nChroma subsampling : 4:2:0\nBit depth : 8 bits\nScan type : Progressive\nCompression mode : Lossy\nBits/(Pixel*Frame) : 0.143\nStream size : 584 MiB (79%)\nWriting library : XviD 64\n\nAudio\nID : 1\nFormat : AC-3\nFormat/Info : Audio Coding 3\nMode extension : CM (complete main)\nFormat settings, Endianness : Big\nCodec ID : 2000\nDuration : 1h 44mn\nBit rate mode : Constant\nBit rate : 192 Kbps\nChannel(s) : 2 channels\nChannel positions : Front: L R\nSampling rate : 44.1 KHz\nBit depth : 16 bits\nCompression mode : Lossy\nStream size : 144 MiB (20%)\nAlignment : Split accross interleaves\nInterleave, duration : 40 ms (1.00 video frame)\nInterleave, preload duration : 500 ms\n\nIMDB: http://www.imdb.com/title/tt1213663/\n","torrent":{"xt":"urn:btih:008f0f20bd0f71de821a0c076c4d713625654d21","amp;dn":"The+World%27s+End+2013+WEBRiP+XViD+UNiQUE","amp;tr":["udp%3A%2F%2Ftracker.openbittorrent.com%3A80","udp%3A%2F%2Fopen.demonii.com%3A1337","udp%3A%2F%2Ftracker.coppersurfer.tk%3A6969","udp%3A%2F%2Fexodus.desync.com%3A6969"],"infoHash":"008f0f20bd0f71de821a0c076c4d713625654d21","infoHashBuffer":{"type":"Buffer","data":[0,143,15,32,189,15,113,222,130,26,12,7,108,77,113,54,37,101,77,33]},"announce":[],"urlList":[]}}